<svg width="77" height="68" viewBox="0 0 77 68" fill="none" xmlns="http://www.w3.org/2000/svg">
<g id="Frame 47">
<g id="Group 60">
<g id="Group">
<path id="Vector" d="M64.4276 65H9.46678C6.45212 65 4.00049 62.5522 4.00049 59.5422V13.7037C4.00049 10.6938 6.45212 8.24597 9.46678 8.24597H14.8493C15.3522 8.24597 15.7603 8.65257 15.7603 9.15559C15.7603 9.65861 15.3522 10.0652 14.8493 10.0652H9.46678C7.45701 10.0652 5.82259 11.6971 5.82259 13.7037V59.5431C5.82259 61.5498 7.45701 63.1816 9.46678 63.1816H64.4276C66.4374 63.1816 68.0718 61.5498 68.0718 59.5431V50.265C68.0718 49.762 68.4799 49.3554 68.9828 49.3554C69.4857 49.3554 69.8939 49.762 69.8939 50.265V59.5431C69.8939 62.5522 67.4414 65 64.4276 65Z" fill="#E13A8A"/>
</g>
<g id="Group_2">
<path id="Vector_2" d="M68.9829 34.6732C68.48 34.6732 68.0718 34.2666 68.0718 33.7636V13.7037C68.0718 11.6971 66.4374 10.0652 64.4276 10.0652H33.9129C33.41 10.0652 33.0019 9.65861 33.0019 9.15559C33.0019 8.65257 33.41 8.24597 33.9129 8.24597H64.4276C67.4423 8.24597 69.8939 10.6938 69.8939 13.7037V33.7645C69.8939 34.2666 69.4858 34.6732 68.9829 34.6732Z" fill="#E13A8A"/>
</g>
<g id="Group_3">
<path id="Vector_3" d="M68.9827 51.1753H56.4822C55.184 51.1753 53.9741 50.4776 53.3263 49.3561L50.1331 43.8347C49.4844 42.7131 49.4844 41.3186 50.1331 40.1962L53.3263 34.6757C53.9741 33.5541 55.184 32.8564 56.4822 32.8564H68.9827C69.4856 32.8564 69.8938 33.263 69.8938 33.7661C69.8938 34.2691 69.4856 34.6757 68.9827 34.6757H56.4822C55.8335 34.6757 55.2286 35.0241 54.9043 35.5853L51.711 41.1058C51.3867 41.667 51.3867 42.3647 51.711 42.925L54.9043 48.4464C55.2277 49.0077 55.8335 49.3561 56.4822 49.3561H68.9827C69.4856 49.3561 69.8938 49.7627 69.8938 50.2657C69.8938 50.7687 69.4856 51.1753 68.9827 51.1753Z" fill="#E13A8A"/>
</g>
<g id="Group_4">
<path id="Vector_4" d="M60.5319 45.8179C58.4437 45.8179 56.7446 44.1215 56.7446 42.0366C56.7446 39.9518 58.4437 38.2562 60.5319 38.2562C62.62 38.2562 64.3191 39.9518 64.3191 42.0366C64.3191 44.1215 62.62 45.8179 60.5319 45.8179ZM60.5319 40.0755C59.4486 40.0755 58.5667 40.956 58.5667 42.0366C58.5667 43.1182 59.4477 43.9987 60.5319 43.9987C61.616 43.9987 62.497 43.1182 62.497 42.0366C62.497 40.956 61.616 40.0755 60.5319 40.0755Z" fill="#E13A8A"/>
</g>
<g id="Group_5">
<path id="Vector_5" d="M71.6476 51.1746H68.9828C68.4799 51.1746 68.0718 50.768 68.0718 50.2649C68.0718 49.7619 68.4799 49.3553 68.9828 49.3553H71.6476C71.9401 49.3553 72.1779 49.1179 72.1779 48.8268V31.0956C72.1779 30.8091 71.9355 30.5662 71.6476 30.5662H69.8939V33.7653C69.8939 34.2683 69.4857 34.6749 68.9828 34.6749C68.4799 34.6749 68.0718 34.2683 68.0718 33.7653V28.7469H71.6476C72.9441 28.7469 74 29.8003 74 31.0956V48.8268C73.9991 50.1212 72.9441 51.1746 71.6476 51.1746Z" fill="#E13A8A"/>
</g>
<g id="Group_6">
<path id="Vector_6" d="M68.9828 34.6731C68.4799 34.6731 68.0718 34.2665 68.0718 33.7635C68.0718 33.2605 68.4799 32.8539 68.9828 32.8539H71.2094C71.3889 32.8457 72.1779 32.7165 72.1779 32.4263C72.1779 31.9233 72.586 31.5167 73.0889 31.5167C73.5918 31.5167 74 31.9233 74 32.4263C74 33.9118 72.5678 34.6313 71.2377 34.6731H68.9828Z" fill="#E13A8A"/>
</g>
<g id="Group_7">
<path id="Vector_7" d="M68.9829 26.5299C68.48 26.5299 68.0719 26.1233 68.0719 25.6203C68.0719 24.3468 67.7065 23.3517 66.9868 22.664C65.6494 21.3869 63.4738 21.4661 63.4529 21.4697L11.934 21.4706C4.30848 21.4706 4.00328 15.0287 4.00055 14.9632C3.98324 14.4611 4.37772 14.0408 4.88062 14.0245C4.89155 14.0236 4.90158 14.0236 4.9116 14.0236C5.39992 14.0236 5.80351 14.4092 5.82173 14.8995C5.8436 15.3953 6.20437 19.6523 11.933 19.6523H63.4073C63.4811 19.6477 66.3217 19.5249 68.2322 21.3387C69.3337 22.383 69.8931 23.8238 69.8931 25.6212C69.894 26.1233 69.4858 26.5299 68.9829 26.5299Z" fill="#E13A8A"/>
</g>
<g id="Group_8">
<path id="Vector_8" d="M61.9951 15.8412H10.1118C9.60889 15.8412 9.20074 15.4346 9.20074 14.9316C9.20074 14.4286 9.60889 14.022 10.1118 14.022H61.9951C62.498 14.022 62.9062 14.4286 62.9062 14.9316C62.9062 15.4346 62.498 15.8412 61.9951 15.8412Z" fill="#E13A8A"/>
</g>
<g id="Group_9">
<path id="Vector_9" d="M54.1847 15.8411C54.1027 15.8411 54.018 15.8302 53.9351 15.8066L16.7962 5.2595L14.2389 15.1589C14.1131 15.6446 13.6157 15.9375 13.1292 15.8129C12.6418 15.6865 12.3484 15.1907 12.4742 14.7041L15.4988 3L54.4334 14.0564C54.9172 14.1938 55.1978 14.6968 55.0602 15.1798C54.9463 15.5801 54.581 15.8411 54.1847 15.8411Z" fill="#E13A8A"/>
</g>
</g>
</g>
</svg>
