<svg width="77" height="68" viewBox="0 0 77 68" fill="none" xmlns="http://www.w3.org/2000/svg">
<g id="Frame 47" clip-path="url(#clip0_10_1320)">
<g id="Group 43">
<path id="Vector" d="M68.1398 9.33704L65.2335 6.76906L68.1398 4.20161C68.5918 3.80173 68.7464 3.17848 68.5342 2.61302C68.3209 2.04705 67.7942 1.68153 67.1918 1.68153H55.165V1.16294C55.165 0.610501 54.7187 0.16272 54.1682 0.16272C53.6176 0.16272 53.1714 0.610501 53.1714 1.16294V14.6526L44.9849 19.1133C44.9397 18.7519 44.8318 18.3968 44.6611 18.0625L43.5076 15.8028C42.7157 14.2512 40.8135 13.6363 39.2682 14.4303L38.3763 14.8885C37.627 15.2738 37.0723 15.9278 36.8139 16.7317C36.5555 17.5351 36.6245 18.3916 37.0085 19.1429L38.162 21.4032C38.4313 21.9306 38.8293 22.3482 39.2973 22.6408C38.685 23.4682 38.3944 24.4856 38.0955 25.5426L37.8807 26.3059C37.7308 26.8375 38.039 27.3904 38.5688 27.5404C38.6591 27.5664 38.7504 27.5784 38.8402 27.5784C39.275 27.5784 39.6745 27.291 39.7991 26.85L40.0139 26.0882C40.4508 24.5423 40.7191 23.7145 41.5731 23.249L43.1044 22.4143L43.2933 22.3175C43.3561 22.2852 43.4147 22.2488 43.4744 22.2128L54.3877 16.2662C54.3187 17.6351 53.5844 18.9284 52.3754 19.6652L45.2785 23.992C45.2702 23.9967 45.2619 24.0014 45.2542 24.0066L43.0452 25.353C42.5751 25.6399 42.4252 26.2554 42.7111 26.7276C42.9804 27.1728 43.5408 27.3311 43.9979 27.1077L42.3219 32.1916L41.0968 32.6956L37.7655 34.0655L38.7255 30.6603C38.8749 30.1287 38.5672 29.5757 38.0374 29.4253C37.5071 29.2743 36.9566 29.5841 36.8066 30.1157L35.2899 35.4979C35.2702 35.5672 35.2572 35.6432 35.2541 35.7155L34.8571 43.0321C34.8452 43.3112 34.9044 43.8386 34.7757 44.1109L30.3672 53.4175H27.1636C25.2867 53.4175 23.7602 54.9493 23.7602 56.8321V59.7192C23.3305 59.5219 22.8537 59.4115 22.3508 59.4115H14.2152C12.3389 59.4115 10.8123 60.9428 10.8123 62.8261V66.4084H8.41915C7.86861 66.4084 7.42236 66.8562 7.42236 67.4086C7.42236 67.961 7.86861 68.4088 8.41915 68.4088H67.1908C67.7413 68.4088 68.1876 67.961 68.1876 67.4086C68.1876 66.8562 67.7413 66.4084 67.1908 66.4084H64.5984V40.6271C64.5984 38.7443 63.0718 37.2125 61.1955 37.2125H55.165V19.7631C56.2702 18.2599 56.6796 16.2896 56.1664 14.4173C56.086 14.1231 55.8758 13.8815 55.5956 13.7623C55.4581 13.7034 55.3108 13.6774 55.165 13.6831V11.8571H67.1913C67.7942 11.8571 68.3209 11.4916 68.5337 10.9261C68.7464 10.3607 68.5918 9.73692 68.1398 9.33704ZM38.7115 17.3461C38.8064 17.0509 39.0098 16.8103 39.2848 16.6692L40.1768 16.211C40.3449 16.1246 40.5245 16.0834 40.7019 16.0834C41.1222 16.0834 41.5285 16.3141 41.733 16.7145L42.887 18.9748C43.1563 19.5027 42.9819 20.1426 42.503 20.466L42.1782 20.6425L41.4927 20.995C40.9256 21.2866 40.2271 21.0606 39.9366 20.491L38.7826 18.2312C38.6419 17.9553 38.6165 17.6408 38.7115 17.3461ZM36.7085 53.7252C36.3697 53.5701 36.0013 53.4685 35.6142 53.4326L36.7085 51.9742V53.7252ZM41.4413 45.6657C41.9208 45.0893 42.0531 44.416 42.16 43.8735C42.187 43.7444 42.6789 41.0483 42.6789 41.0483C42.6789 41.0483 43.1443 41.3394 43.1931 41.3602C43.2269 41.3753 43.2507 41.4086 43.2544 41.4477L43.7966 46.9788H40.456L41.4413 45.6657ZM47.3359 40.1449L46.4943 46.9741H45.7995L45.2386 41.2519C45.167 40.5188 44.7197 39.8789 44.0643 39.5607L43.0618 38.9229L43.7297 35.2089C43.7297 35.2089 46.5431 38.5626 46.6085 38.648C47.1907 39.4077 47.3899 39.7117 47.3359 40.1449ZM36.569 44.9857C36.7703 44.3775 36.8637 43.7584 36.8481 43.1289L37.2103 36.4559L41.8207 34.5602L40.9827 39.2181C40.9801 39.2306 40.9775 39.2436 40.9759 39.2561L40.2827 43.1076C40.1924 43.5064 40.1135 44.1115 39.8655 44.44L33.1298 53.4175H32.5745L36.569 44.9857ZM12.8059 62.8256C12.8059 62.0461 13.4379 61.412 14.2152 61.412H22.3508C23.1281 61.412 23.7607 62.0461 23.7607 62.8256V66.4084H12.8059V62.8256ZM25.7537 62.8256V56.8321C25.7537 56.0521 26.3863 55.4179 27.1636 55.4179H35.2992C36.0765 55.4179 36.7085 56.0521 36.7085 56.8321V66.4084H25.7542L25.7537 62.8256ZM62.6048 40.6271V66.4084H51.6505V60.4112C51.6505 59.8588 51.2043 59.411 50.6537 59.411C50.1027 59.411 49.6564 59.8588 49.6564 60.4112V66.4084H38.7021V50.3929C38.7021 49.6134 39.3341 48.9793 40.1114 48.9793H48.2471C49.0244 48.9793 49.6564 49.6134 49.6564 50.3929V55.407C49.6564 55.9594 50.1027 56.4072 50.6532 56.4072C51.2043 56.4072 51.65 55.9594 51.65 55.407V40.6271C51.65 39.8471 52.2825 39.2129 53.0598 39.2129H54.1578C54.1609 39.2129 54.1645 39.2134 54.1682 39.2134C54.1713 39.2134 54.1749 39.2129 54.178 39.2129H61.195C61.9723 39.2129 62.6048 39.8476 62.6048 40.6271ZM53.0598 37.2125C51.1835 37.2125 49.6569 38.7443 49.6569 40.6271V47.2865C49.2999 47.123 48.9108 47.0194 48.5014 46.9892L49.3145 40.3912C49.4743 39.1051 48.8205 38.2528 48.1885 37.428C48.1215 37.3406 44.247 32.7243 44.247 32.7243L46.624 25.5129L53.1714 21.5214V37.2125H53.0598ZM55.165 9.85615V3.68249H65.7104L63.4392 5.68918C63.1299 5.96253 62.9525 6.35617 62.9525 6.76958C62.9525 7.183 63.1299 7.57663 63.4392 7.84999L65.7104 9.85667L55.165 9.85615Z" fill="#E13A8A"/>
</g>
</g>
<defs>
<clipPath id="clip0_10_1320">
<rect width="77" height="68" fill="white"/>
</clipPath>
</defs>
</svg>
