<svg width="77" height="68" viewBox="0 0 77 68" fill="none" xmlns="http://www.w3.org/2000/svg">
<g id="Frame 47">
<g id="Group">
<path id="Vector" d="M53.5466 3.58483L15.1097 1.00507C13.8567 0.921778 12.77 1.87517 12.6861 3.13209L12.3854 7.64344H7.27676C6.02142 7.64344 5 8.66838 5 9.92804V65.4718C5 66.7315 6.02142 67.7564 7.27676 67.7564H36.6978C36.9528 67.7564 37.2054 67.6519 37.3863 67.4712L41.8277 63.0343C41.8728 63.0439 41.9188 63.0516 41.9662 63.0547L49.5487 63.5636C50.7589 63.6438 51.8912 62.6561 51.9724 61.4366L55.6663 6.01694C55.7494 4.77308 54.786 3.66799 53.5466 3.58483ZM37.6735 64.4075V57.6059C37.6735 57.426 37.8195 57.2796 37.9988 57.2796H44.751L37.6735 64.4075ZM50.0251 61.3061C49.9934 61.5032 49.878 61.6045 49.6791 61.6098L43.658 61.2057L47.789 57.0789C47.9729 56.8952 48.0764 56.6455 48.0764 56.385V9.92817C48.0764 8.66851 47.055 7.64357 45.7996 7.64357H35.6527C34.3911 7.64357 34.3911 9.6018 35.6527 9.6018H45.7996C45.979 9.6018 46.1249 9.74827 46.1249 9.92817V55.3213H37.9988C36.7435 55.3213 35.722 56.3463 35.722 57.6059V65.7982H7.27676C7.09748 65.7982 6.95151 65.6517 6.95151 65.4718V9.92817C6.95151 9.74827 7.09748 9.6018 7.27676 9.6018H30.4565C31.7181 9.6018 31.7181 7.64357 30.4565 7.64357H14.3412L14.6332 3.2629C14.6649 3.06564 14.7803 2.96447 14.9794 2.95911L53.4162 5.53874C53.6128 5.5706 53.7138 5.68639 53.7191 5.88613L50.0251 61.3061Z" fill="#E13A8A"/>
<path id="Vector_2" d="M39.8447 31.9045H13.2322C12.6933 31.9045 12.2565 32.3429 12.2565 32.8837C12.2565 33.4244 12.6933 33.8628 13.2322 33.8628H39.8447C40.3837 33.8628 40.8204 33.4244 40.8204 32.8837C40.8204 32.3429 40.3837 31.9045 39.8447 31.9045Z" fill="#E13A8A"/>
<path id="Vector_3" d="M39.8447 38.7302H13.2322C12.6933 38.7302 12.2565 39.1686 12.2565 39.7093C12.2565 40.2501 12.6933 40.6884 13.2322 40.6884H39.8447C40.3837 40.6884 40.8204 40.2501 40.8204 39.7093C40.8204 39.1686 40.3837 38.7302 39.8447 38.7302Z" fill="#E13A8A"/>
<path id="Vector_4" d="M12.2565 26.0582C12.2565 26.5989 12.6933 27.0373 13.2322 27.0373H39.8447C40.3837 27.0373 40.8204 26.5989 40.8204 26.0582C40.8204 25.5175 40.3837 25.0791 39.8447 25.0791H13.2322C12.6933 25.0791 12.2565 25.5175 12.2565 26.0582Z" fill="#E13A8A"/>
<path id="Vector_5" d="M16.9442 19.2308C16.9442 19.7716 17.381 20.2099 17.9199 20.2099H35.1565C35.6954 20.2099 36.1323 19.7716 36.1323 19.2308C36.1323 18.6901 35.6954 18.2517 35.1565 18.2517H17.9199C17.381 18.2517 16.9442 18.6901 16.9442 19.2308Z" fill="#E13A8A"/>
<path id="Vector_6" d="M30.3377 58.2398C28.5828 58.2445 26.8278 58.2483 25.0729 58.2511C24.483 58.252 23.8933 58.2528 23.3035 58.2532C22.2348 58.254 21.5147 58.0387 21.2753 56.859C21.0728 55.8617 19.6667 55.9957 19.3935 56.859C18.7183 58.9918 17.6015 58.1562 16.976 56.7216C16.3519 55.2904 16.1919 53.6885 15.9193 52.1654C15.7189 51.0463 14.0321 51.36 14.0027 52.4258C13.9639 53.8293 13.8333 55.2105 13.4782 56.5717C13.112 57.9761 12.5631 59.3259 12.0182 60.6678C11.5432 61.8376 13.432 62.3409 13.9 61.1884C14.3828 59.9994 14.8663 58.8038 15.2261 57.5704C15.8948 59.184 17.2783 61.009 19.2497 59.9335C19.6165 59.7333 19.9591 59.4489 20.2597 59.1171C21.2849 60.3059 22.8109 60.2122 24.2387 60.2105C26.2718 60.2079 28.3049 60.2034 30.3379 60.1981C31.5933 60.1948 31.5956 58.2366 30.3377 58.2398Z" fill="#E13A8A"/>
<path id="Vector_7" d="M70.8219 33.1297C70.3149 32.6234 69.6178 32.3638 68.9101 32.3446L68.1727 32.3482V30.9489C68.1727 30.0965 67.6681 29.196 66.9454 28.7476V26.7766C66.9454 22.7206 60.6522 22.7382 60.6522 26.7956V28.7669C59.916 29.2236 59.4221 30.0386 59.4221 30.9669V32.4006C56.174 32.6225 56.1648 37.5892 59.4258 37.7833C59.4466 42.1665 59.4455 46.4778 59.4221 50.9344C59.4157 52.1633 61.367 52.2354 61.3736 50.9447C61.397 46.4844 61.3981 42.1692 61.3774 37.7824L66.2186 37.7583C66.2186 37.7583 66.2123 52.2293 66.2123 58.7483C66.2123 61.9256 61.3701 61.9468 61.3701 58.7153L61.3718 56.9298C61.4479 55.6661 59.5 55.5482 59.4238 56.8118V58.4872C59.4238 59.9233 59.8664 61.1394 60.7232 61.9949C60.7995 64.0436 61.6597 66.026 63.1131 67.4722C63.53 67.8873 64.1073 67.7605 64.5109 67.4484C65.9894 65.9622 66.8226 64.0028 66.8747 61.9114C67.5188 61.2676 68.1637 60.6195 68.1637 58.4001L68.1645 49.4771C69.8519 49.9586 71.6113 48.6483 71.6113 46.8731V35.0361C71.6113 34.3151 71.331 33.638 70.8219 33.1297ZM61.3736 32.382V30.9668C61.3736 30.6771 61.5718 30.4341 61.8385 30.3619L65.7447 30.3425C65.854 30.3696 65.9548 30.4215 66.0365 30.5032C66.1556 30.6221 66.2212 30.7803 66.2212 30.9489V32.358L61.3736 32.382ZM63.8027 25.5935C64.4017 25.5935 64.9938 26.1828 64.9938 26.7766V28.3648L62.6036 28.3767V26.7956C62.6037 26.136 63.1413 25.5968 63.8027 25.5935ZM63.8013 65.2672C63.3476 64.6221 63.0195 63.8924 62.8363 63.1255C63.1384 63.1911 63.4444 63.2253 63.7505 63.2253C64.0923 63.2253 64.434 63.1828 64.7704 63.1004C64.5916 63.879 64.2641 64.6131 63.8013 65.2672ZM69.6598 46.8731C69.6598 47.8002 68.1699 47.8731 68.1699 46.8902C68.1699 46.8902 68.1716 37.6247 68.1727 36.7754C68.1733 36.2276 67.7195 35.7951 67.1894 35.7951L59.5929 35.8329C58.6507 35.8329 58.6727 34.3537 59.6026 34.3491L68.9197 34.3028C69.3702 34.3413 69.6169 34.5858 69.6597 35.0361V46.8731H69.6598Z" fill="#E13A8A"/>
</g>
</g>
</svg>
