<svg width="77" height="68" viewBox="0 0 77 68" fill="none" xmlns="http://www.w3.org/2000/svg">
<g id="Frame 47">
<g id="Group 59">
<g id="Group 45">
<path id="Vector" d="M69.4915 47.0458C68.908 47.0458 68.4357 47.5413 68.4357 48.152V65.7876H46.6738V44.8524C46.6738 43.4288 45.5686 42.2708 44.2104 42.2708H32.0142C30.656 42.2708 29.5507 43.4294 29.5507 44.8524V65.7876H7.78889V48.152C7.78889 47.5413 7.31655 47.0458 6.73313 47.0458C6.14971 47.0458 5.67737 47.5413 5.67737 48.152V66.3038C5.67737 67.2389 6.40375 68 7.2962 68H68.9284C69.8208 68 70.5472 67.2389 70.5472 66.3038V48.152C70.5472 47.5413 70.0749 47.0458 69.4915 47.0458ZM31.6623 65.7876V44.8524C31.6623 44.6491 31.8201 44.4831 32.0142 44.4831H44.2104C44.4045 44.4831 44.5623 44.6491 44.5623 44.8524V65.7876H31.6623Z" fill="#E13A8A"/>
<path id="Vector_2" d="M64.4761 61.4168C65.7155 61.4168 66.724 60.3602 66.724 59.0616V46.9903C66.724 45.6917 65.7155 44.6356 64.4761 44.6356H51.4105C50.1711 44.6356 49.1626 45.6917 49.1626 46.9903V59.0616C49.1626 60.3602 50.1711 61.4168 51.4105 61.4168H64.4761ZM51.2741 59.0616V46.9903C51.2741 46.9119 51.3352 46.848 51.4105 46.848H64.4761C64.5514 46.848 64.6124 46.9119 64.6124 46.9903V59.0616C64.6124 59.1405 64.5514 59.2045 64.4761 59.2045H51.4105C51.3352 59.2045 51.2741 59.1405 51.2741 59.0616Z" fill="#E13A8A"/>
<path id="Vector_3" d="M24.8141 61.4168C26.0535 61.4168 27.062 60.3602 27.062 59.0616V46.9903C27.062 45.6917 26.0535 44.6356 24.8141 44.6356H11.7485C10.5091 44.6356 9.50061 45.6917 9.50061 46.9903V59.0616C9.50061 60.3602 10.5091 61.4168 11.7485 61.4168H24.8141ZM11.6121 59.0616V46.9903C11.6121 46.9119 11.6732 46.848 11.7485 46.848H24.8141C24.8894 46.848 24.9504 46.9119 24.9504 46.9903V59.0616C24.9504 59.1405 24.8894 59.2045 24.8141 59.2045H11.7485C11.6732 59.2045 11.6121 59.1405 11.6121 59.0616Z" fill="#E13A8A"/>
<path id="Vector_4" d="M71.0466 17.3082C71.0466 16.1265 71.9643 15.1655 73.0932 15.1655C73.6766 15.1655 74.149 14.6701 74.149 14.0594V11.3527C74.149 10.7419 73.6766 10.2465 73.0932 10.2465H55.6649C55.0815 10.2465 54.6092 10.7419 54.6092 11.3527C54.6092 11.9639 55.0815 12.4588 55.6649 12.4588H72.0374V13.0955C70.5918 13.493 69.4508 14.6879 69.0709 16.202H52.4619V6.3823C52.4619 3.4146 50.1574 1 47.325 1H28.9003C26.0673 1 23.7634 3.4146 23.7634 6.3823V10.2465H3.1315C2.54809 10.2465 2.07574 10.7419 2.07574 11.3527V14.0594C2.07574 14.6701 2.54809 15.1655 3.1315 15.1655C4.2604 15.1655 5.17814 16.1265 5.17814 17.3082C5.17814 17.7075 5.37994 18.0572 5.68237 18.2519V25.8074H3.78256C2.88956 25.8074 2.16317 26.5685 2.16317 27.5036V33.5271C2.16317 34.4622 2.88956 35.2233 3.78256 35.2233H5.68237V43.7357C5.68237 44.3464 6.15472 44.8419 6.73813 44.8419C7.32155 44.8419 7.7939 44.3464 7.7939 43.7357V35.2233H68.5182V43.7374C68.5182 44.3482 68.9906 44.8436 69.574 44.8436C70.1569 44.8436 70.6298 44.3482 70.6298 43.7374V35.2233H72.5296C73.4226 35.2233 74.149 34.4622 74.149 33.5271V27.5036C74.149 26.5685 73.4226 25.8074 72.5296 25.8074H70.6298V18.1891C70.8827 17.9869 71.0466 17.6677 71.0466 17.3082ZM25.8743 6.3823C25.8743 4.63429 27.232 3.21238 28.8997 3.21238H47.3244C48.9927 3.21238 50.3498 4.63429 50.3498 6.3823V18.4518C50.3498 20.1998 48.9927 21.6218 47.3244 21.6218H28.9003C27.232 21.6218 25.8749 20.1998 25.8749 18.4518V6.3823H25.8743ZM72.0374 33.0109H4.27469V28.0198H72.0374V33.0109ZM7.7939 25.8074V18.4144H20.5966C21.1801 18.4144 21.6524 17.9195 21.6524 17.3082C21.6524 16.6975 21.1801 16.202 20.5966 16.202H7.15384C6.77388 14.6879 5.63289 13.493 4.18726 13.0955V12.4588H23.7628V18.4524C23.7628 21.4201 26.0673 23.8347 28.8997 23.8347H47.3244C50.1574 23.8347 52.4613 21.4201 52.4613 18.4524V18.415H68.5177V25.8074H7.7939Z" fill="#E13A8A"/>
<path id="Vector_5" d="M34.03 54.0297H33.1854C32.602 54.0297 32.1296 54.5251 32.1296 55.1359C32.1296 55.7466 32.602 56.242 33.1854 56.242H34.03C34.6134 56.242 35.0858 55.7466 35.0858 55.1359C35.0858 54.5251 34.6134 54.0297 34.03 54.0297Z" fill="#E13A8A"/>
</g>
<g id="Group">
<path id="Vector_6" d="M42.7743 18.5778C42.6682 18.5778 42.5647 18.5337 42.5071 18.4547C42.5071 18.4547 42.0653 17.8502 41.2132 16.6783C40.3447 15.484 39.3692 13.5427 38.5369 11.3526C38.2641 10.635 38.0868 9.75534 37.9721 8.89441C37.7685 9.99846 37.4681 11.1826 37.0279 12.1523C36.4545 13.4159 35.563 14.7001 34.7983 15.6861C35.4542 15.3461 36.2267 15.0805 37.0391 15.0805C39.2914 15.0805 40.6178 17.2461 40.6732 17.3384C40.7479 17.4627 40.6835 17.612 40.5297 17.6723C40.376 17.7328 40.1906 17.6808 40.1156 17.5568C40.1035 17.537 38.9017 15.5808 37.0394 15.5808C35.134 15.5808 33.3427 17.4177 33.325 17.4362L31.8655 16.6783C31.8903 16.6518 34.5732 14.1739 35.6956 11.7012C36.8177 9.22894 37.396 5.05404 37.3979 5.01302L38.6746 5.01263C39.3909 4.61899 39.1577 8.72128 39.9513 10.8098C40.7581 12.9326 41.6721 15.0148 42.5047 16.1601C43.3562 17.331 43.7814 17.9441 43.7814 17.9441C43.8685 18.0632 43.0793 18.473 42.9314 18.543C42.8821 18.5665 42.8279 18.5778 42.7743 18.5778Z" fill="#E13A8A"/>
</g>
</g>
</g>
</svg>
